<svg width="38" height="42" viewBox="0 0 38 42" fill="none" xmlns="http://www.w3.org/2000/svg">
<path d="M8.60925 27.4092C9.09056 31.7057 14.1971 34.664 20.7241 34.711C26.7346 34.7462 29.7046 32.6566 29.7046 29.3109C29.7046 25.6366 25.5607 24.7327 17.355 23.594C8.12796 22.0913 0.849649 19.5557 0.849649 12.1835C0.849649 4.81124 6.96576 0.491211 18.5171 0.491211C30.0685 0.491211 36.1846 5.69167 36.079 14.0852H28.1433C27.885 9.34256 23.788 7.31169 18.165 7.31169C12.5419 7.31169 9.04361 8.74387 9.04361 12.3478C9.04361 16.2922 13.0467 16.9848 21.9215 18.4991C30.7846 19.8491 37.7107 21.9974 37.7107 29.5692C37.7107 37.141 32.3459 41.508 20.4893 41.508C6.03838 41.508 -0.13644 32.5275 0.403563 27.3857H8.621L8.60925 27.4092Z" fill="#F9F9F9"/>
</svg>
