<svg width="21" height="16" viewBox="0 0 21 16" fill="none" xmlns="http://www.w3.org/2000/svg">
<path d="M12.8334 14.2079C12.8334 13.8368 12.9501 13.5893 13.1834 13.3419L19.0168 7.15585C19.4834 6.66097 20.1834 6.66097 20.6501 7.15585C21.1168 7.65074 21.1168 8.39306 20.6501 8.88795L14.8167 15.074C14.3501 15.5689 13.6501 15.5689 13.1834 15.074C12.9501 14.8265 12.8334 14.5791 12.8334 14.2079Z" fill="black"/>
<path d="M12.8334 1.83584C12.8334 1.46468 12.9501 1.21724 13.1834 0.969795C13.6501 0.474912 14.3501 0.474912 14.8167 0.969796L20.6501 7.15585C21.1168 7.65074 21.1168 8.39306 20.6501 8.88795C20.1834 9.38283 19.4834 9.38282 19.0168 8.88793L13.1834 2.70189C12.9501 2.45445 12.8334 2.207 12.8334 1.83584Z" fill="black"/>
<path d="M0 8.0219C3.05981e-08 7.27957 0.46667 6.78469 1.16667 6.78469L19.8334 6.78469C20.5334 6.78469 21.0001 7.27957 21.0001 8.0219C21.0001 8.76423 20.5334 9.25911 19.8334 9.25911L1.16667 9.25911C0.46667 9.25911 -3.05981e-08 8.76422 0 8.0219Z" fill="black"/>
</svg>
