<svg width="97" height="97" viewBox="0 0 97 97" fill="none" xmlns="http://www.w3.org/2000/svg">
<path d="M84.6697 84.5799C83.9918 84.5799 83.4396 85.1321 83.4396 85.81V91.1434C83.4396 92.5665 82.2813 93.7203 80.8627 93.7203H5.04606C3.62292 93.7203 2.46916 92.562 2.46916 91.1434V5.04157C2.46916 3.61844 3.62741 2.46467 5.04606 2.46467H80.8627C82.2858 2.46467 83.4396 3.62293 83.4396 5.04157V15.1382C83.4396 15.8161 83.9918 16.3683 84.6697 16.3683C85.3476 16.3683 85.8998 15.8161 85.8998 15.1382V5.04157C85.8998 2.26265 83.6371 0 80.8582 0H5.04156C2.26264 0 0 2.26265 0 5.04157V91.1479C0 93.9268 2.26264 96.1895 5.04156 96.1895H80.8582C83.6371 96.1895 85.8998 93.9268 85.8998 91.1479V85.8145C85.8998 85.1366 85.3476 84.5844 84.6697 84.5844V84.5799Z" fill="#010101"/>
<path d="M74.2944 15.3303C74.2944 16.0082 74.8466 16.5604 75.5245 16.5604C76.2024 16.5604 76.7546 16.0082 76.7546 15.3303V10.3785C76.7546 9.70063 76.2024 9.14844 75.5245 9.14844H10.3746C9.69672 9.14844 9.14453 9.70063 9.14453 10.3785V50.1903C9.14453 50.8682 9.69672 51.4204 10.3746 51.4204C11.0525 51.4204 11.6047 50.8682 11.6047 50.1903V11.6086H74.2944V15.3303Z" fill="#010101"/>
<path d="M9.50368 58.1104C9.96159 58.5683 10.7832 58.5683 11.2456 58.1104C11.4745 57.8814 11.6047 57.5672 11.6047 57.2395C11.6047 56.9117 11.4745 56.5975 11.2456 56.3685C11.0166 56.1396 10.6979 56.0049 10.3746 56.0049C10.0514 56.0049 9.73263 56.1351 9.50368 56.364C9.27472 56.593 9.14453 56.9117 9.14453 57.235C9.14453 57.5582 9.27472 57.877 9.50368 58.1059V58.1104Z" fill="#010101"/>
<path d="M11.6047 64.5709C11.6047 63.893 11.0525 63.3408 10.3746 63.3408C9.69672 63.3408 9.14453 63.893 9.14453 64.5709V85.8102C9.14453 86.4881 9.69672 87.0403 10.3746 87.0403H75.5245C76.2024 87.0403 76.7546 86.4881 76.7546 85.8102V81.6216C76.7546 80.9437 76.2024 80.3915 75.5245 80.3915C74.8466 80.3915 74.2944 80.9437 74.2944 81.6216V84.5801H11.6047V64.5709Z" fill="#010101"/>
<path d="M57.8877 68.8531C58.368 68.3727 58.368 67.5916 57.8877 67.1112C57.4477 66.6713 56.5812 66.6713 56.1458 67.1112L51.9033 71.3537L49.0885 68.5388C47.8718 67.3267 45.8965 67.3222 44.6799 68.5388L43.158 70.0607C42.9246 70.2942 42.7988 70.604 42.7988 70.9317C42.7988 71.2594 42.929 71.5692 43.158 71.8026C43.6159 72.2605 44.442 72.256 44.8999 71.8026L46.8842 69.8183L49.699 72.6332C50.2871 73.2213 51.0683 73.5445 51.9033 73.5445C52.7383 73.5445 53.5195 73.2213 54.1076 72.6332L57.8877 68.8531Z" fill="#010101"/>
<path d="M95.4182 38.9272C96.1544 37.7779 96.3744 36.3592 96.0198 35.0393C95.6651 33.7195 94.7672 32.6016 93.5551 31.9731C92.72 31.5421 92.2128 30.6577 92.2577 29.7239C92.3205 28.3592 91.8042 27.0213 90.8345 26.0561C89.8693 25.0909 88.527 24.5701 87.1667 24.6375C86.2284 24.6868 85.3485 24.175 84.9175 23.34C84.289 22.1279 83.1712 21.2255 81.8513 20.8709C80.5314 20.5162 79.1172 20.7362 77.9635 21.4769C77.1733 21.9842 76.1543 21.9842 75.3686 21.4769C74.2193 20.7407 72.8007 20.5207 71.4808 20.8709C70.1609 21.2255 69.0431 22.1234 68.4145 23.3355C67.9836 24.1706 67.0902 24.6734 66.1654 24.633C64.8006 24.5701 63.4628 25.0864 62.4975 26.0516C61.5323 27.0168 61.0116 28.3547 61.0744 29.7194C61.1193 30.6532 60.6075 31.5376 59.777 31.9686C58.5604 32.5971 57.6625 33.715 57.3078 35.0349C57.1417 35.6589 57.1013 36.3009 57.1911 36.9518L57.2944 37.715H23.2828C22.6049 37.715 22.0527 38.2672 22.0527 38.9451C22.0527 39.623 22.6049 40.1752 23.2828 40.1752H58.4885L58.1249 41.0955C58.062 41.2571 57.9947 41.3918 57.9184 41.513C57.1776 42.6668 56.9576 44.081 57.3123 45.4008C57.3572 45.5714 57.4156 45.7465 57.4874 45.9306L57.851 46.8509H23.2828C22.6049 46.8509 22.0527 47.4031 22.0527 48.081C22.0527 48.7589 22.6049 49.3111 23.2828 49.3111H60.7557L60.9218 49.7466C61.0385 50.0563 61.0924 50.384 61.0789 50.7118C61.0161 52.0765 61.5323 53.4144 62.502 54.3796C63.4717 55.3493 64.8006 55.8656 66.1698 55.7982C66.2103 55.7982 66.2462 55.7982 66.2866 55.7982C67.1889 55.7982 68.006 56.2966 68.419 57.1002C68.6166 57.4818 68.868 57.8409 69.1643 58.1596L69.3438 58.3527V76.409C69.3438 76.9073 69.6401 77.3562 70.1026 77.5448C70.565 77.7378 71.0902 77.6346 71.4449 77.2799L76.6705 72.0812L81.8962 77.2799C82.2463 77.6256 82.785 77.7333 83.2385 77.5448C83.7009 77.3517 83.9972 76.9073 83.9972 76.409V58.3527L84.1768 58.1596C84.4731 57.8409 84.7245 57.4818 84.922 57.1002C85.3485 56.2741 86.2374 55.7668 87.1667 55.8027C88.5359 55.8656 89.8693 55.3493 90.839 54.3841C91.8042 53.4189 92.325 52.081 92.2621 50.7163C92.2173 49.7825 92.729 48.8981 93.5596 48.4671C94.7717 47.8386 95.674 46.7207 96.0242 45.4008C96.3744 44.081 96.1589 42.6623 95.4227 41.513C94.9154 40.7229 94.9154 39.7038 95.4227 38.9182L95.4182 38.9272ZM77.537 69.4819C77.0566 69.006 76.2799 69.006 75.7996 69.4819L71.804 73.455V59.6995L72.5089 59.7309C73.5235 59.7803 74.5156 59.5154 75.3686 58.9677C76.1543 58.4604 77.1733 58.4604 77.9635 58.9677C78.8164 59.5154 79.7996 59.7758 80.8097 59.7309L81.4921 59.6995L81.528 60.3819V73.455L77.5325 69.4819H77.537ZM93.3441 42.8509C93.7122 43.4255 93.8199 44.1079 93.6449 44.7723C93.4653 45.4368 93.0343 45.971 92.4238 46.2852C90.7402 47.1562 89.7077 48.943 89.7975 50.8375C89.8289 51.5243 89.582 52.1663 89.0971 52.6512C88.6123 53.136 87.9658 53.383 87.2834 53.3515C85.3844 53.2662 83.6021 54.2988 82.7312 55.9778C82.4169 56.5884 81.8782 57.0193 81.2183 57.1944C80.5673 57.3695 79.867 57.2618 79.2968 56.8981C77.7255 55.8925 75.611 55.8925 74.0397 56.8981C73.6447 57.1495 73.2002 57.2797 72.7513 57.2797C72.5403 57.2797 72.3293 57.2528 72.1183 57.1944C71.4583 57.0193 70.9196 56.5839 70.6054 55.9778C69.7344 54.2898 67.9477 53.2573 66.0531 53.3515C65.3663 53.3785 64.7243 53.1315 64.2394 52.6512C63.7546 52.1663 63.5077 51.5243 63.5391 50.8375C63.5974 49.5356 63.1171 48.2336 62.2147 47.2729C62.1923 47.246 62.1698 47.2235 62.1519 47.2056C61.7748 46.824 61.3617 46.5187 60.9173 46.2852C60.3067 45.971 59.8757 45.4323 59.6962 44.7723C59.5211 44.1079 59.6243 43.4255 59.997 42.8509C61.0205 41.2526 61.0205 39.192 59.997 37.5938C59.6288 37.0192 59.5211 36.3368 59.6962 35.6724C59.8713 35.0079 60.3067 34.4737 60.9173 34.1594C62.6008 33.2885 63.6334 31.5017 63.5436 29.6072C63.5121 28.9203 63.7591 28.2783 64.2439 27.7935C64.7198 27.3176 65.3842 27.0617 66.0576 27.0931C67.9476 27.1829 69.7389 26.1459 70.6099 24.4669C70.9241 23.8563 71.4628 23.4253 72.1228 23.2502C72.7827 23.0707 73.4651 23.1784 74.0442 23.551C75.6425 24.5746 77.7031 24.5746 79.3013 23.551C79.8759 23.1829 80.5583 23.0752 81.2228 23.2502C81.8827 23.4253 82.4214 23.8608 82.7357 24.4669C83.6066 26.1549 85.3979 27.1874 87.2879 27.0931C87.9658 27.0662 88.6257 27.3176 89.1016 27.7935C89.5865 28.2783 89.8334 28.9203 89.8019 29.6072C89.7122 31.5017 90.7447 33.2885 92.4283 34.1594C93.0343 34.4737 93.4698 35.0124 93.6449 35.6724C93.8244 36.3368 93.7167 37.0192 93.3441 37.5938C92.3205 39.192 92.3205 41.2526 93.3441 42.8509Z" fill="#010101"/>
<path d="M77.5797 44.9292L85.2475 37.2613C85.481 37.0279 85.6067 36.7181 85.6067 36.3904C85.6067 36.0627 85.4765 35.7529 85.2475 35.5195C84.7672 35.0391 83.986 35.0391 83.5057 35.5195L76.7087 42.3164L73.7143 39.322C73.4809 39.0885 73.1711 38.9628 72.8434 38.9628C72.5157 38.9628 72.2059 39.0885 71.9725 39.322C71.739 39.5554 71.6133 39.8652 71.6133 40.1929C71.6133 40.5206 71.7435 40.8304 71.9725 41.0638L75.8378 44.9292C76.2957 45.3871 77.1218 45.3826 77.5797 44.9292Z" fill="#010101"/>
<path d="M20.3631 24.5835C20.821 25.0414 21.647 25.0414 22.1049 24.5835C22.3339 24.3545 22.4641 24.0357 22.4641 23.7125C22.4641 23.3893 22.3339 23.0705 22.1049 22.8416C21.876 22.6126 21.5572 22.4824 21.234 22.4824C20.9108 22.4824 20.592 22.6126 20.3631 22.8416C20.1341 23.0705 20.0039 23.3893 20.0039 23.7125C20.0039 24.0357 20.1341 24.3545 20.3631 24.5835Z" fill="#010101"/>
<path d="M38.8479 23.7125C38.8479 23.0346 38.2957 22.4824 37.6179 22.4824H28.3473C27.6694 22.4824 27.1172 23.0346 27.1172 23.7125C27.1172 24.3904 27.6694 24.9426 28.3473 24.9426H37.6179C38.2957 24.9426 38.8479 24.3904 38.8479 23.7125Z" fill="#010101"/>
<path d="M58.246 57.2399C58.246 56.562 57.6938 56.0098 57.0159 56.0098H35.2379C34.56 56.0098 34.0078 56.562 34.0078 57.2399C34.0078 57.9177 34.56 58.4699 35.2379 58.4699H57.0159C57.6938 58.4699 58.246 57.9177 58.246 57.2399Z" fill="#010101"/>
</svg>
